# Blender 3.6.0
# www.blender.org
mtllib cas_game3.mtl
o Cube
v 1.687138 3.398288 -1.687138
v 3.398288 0.022500 -3.398288
v 1.687138 3.398288 0.642313
v 3.398288 0.022500 2.353463
v -1.687138 3.398288 -1.687138
v -3.398288 0.022500 -3.398288
v -1.687138 3.398288 0.642313
v -3.398288 0.022500 2.353463
v 0.713866 2.893568 -0.663183
v -0.028257 2.893568 -0.317813
v -0.028257 1.727029 -0.407035
v 0.633826 1.727029 -0.669118
v 0.855694 2.893568 -0.724229
v 0.760493 1.727029 -0.724229
v -0.770382 2.893568 -0.663183
v -0.690341 1.727029 -0.669118
v -0.912208 2.893568 -0.724229
v -0.817010 1.727029 -0.724229
v 0.713866 2.893568 -0.785274
v 0.633826 1.727029 -0.779340
v -0.028257 1.727029 -1.041421
v -0.028257 2.893568 -1.130645
v -0.770382 2.893568 -0.785274
v -0.690341 1.727029 -0.779340
v -0.953397 3.398288 -0.724228
v -0.805010 3.398288 -0.660615
v -0.805010 3.398288 -0.787841
v -0.383977 3.398288 -0.983782
v -0.383977 3.398288 -0.464674
v 0.327463 3.398288 -0.983782
v -0.028257 3.398288 -1.169248
v -0.028257 3.398288 -0.279208
v 0.327463 3.398288 -0.464674
v 0.748496 3.398288 -0.660615
v 0.748496 3.398288 -0.787841
v 0.896884 3.398288 -0.724228
v -0.080264 0.022500 -0.985674
v 0.023750 0.022500 -0.985674
v -0.028257 0.022500 -1.006260
v 0.615529 0.022500 -0.777983
v 0.615529 0.022500 -0.670474
v 0.738732 0.022500 -0.724229
v -0.795246 0.022500 -0.724229
v -0.672044 0.022500 -0.670474
v -0.028257 0.022500 -0.442197
v 0.023750 0.022500 -0.462783
v -0.080264 0.022500 -0.462783
v -0.672044 0.022500 -0.777983
vn -0.0000 1.0000 -0.0000
vn -0.0000 0.4521 0.8920
vn -0.8920 0.4521 -0.0000
vn -0.0000 -1.0000 -0.0000
vn 0.8920 0.4521 -0.0000
vn -0.0000 0.4521 -0.8920
vn -0.4052 0.0391 -0.9134
vn -0.3863 0.0254 -0.9220
vn -0.0000 0.0345 -0.9994
vn -0.0000 0.0508 -0.9987
vn -0.9967 0.0807 -0.0000
vn -0.9989 0.0476 -0.0000
vn -0.2501 -0.7027 -0.6661
vn -0.0000 -0.6221 -0.7829
vn -0.2698 -0.6955 -0.6660
vn -0.2602 -0.9656 -0.0000
vn -0.2877 0.7166 -0.6353
vn -0.2479 0.9688 -0.0000
vn -0.0000 0.6405 -0.7680
vn -0.2988 0.7217 -0.6244
vn 0.4052 0.0391 -0.9134
vn 0.3863 0.0254 -0.9220
vn 0.9967 0.0807 -0.0000
vn 0.9989 0.0476 -0.0000
vn 0.2501 -0.7027 -0.6661
vn 0.2698 -0.6955 -0.6660
vn 0.2613 -0.9653 -0.0000
vn 0.2516 0.9678 -0.0000
vn 0.2877 0.7166 -0.6353
vn 0.2988 0.7217 -0.6244
vn -0.4052 0.0391 0.9134
vn -0.0000 0.0508 0.9987
vn -0.0000 0.0345 0.9994
vn -0.3863 0.0254 0.9220
vn -0.2698 -0.6955 0.6660
vn -0.0000 -0.6221 0.7829
vn -0.2501 -0.7027 0.6661
vn -0.2877 0.7166 0.6353
vn -0.0000 0.6405 0.7680
vn -0.2988 0.7217 0.6244
vn 0.4052 0.0391 0.9134
vn 0.3863 0.0254 0.9220
vn 0.2698 -0.6955 0.6660
vn 0.2501 -0.7027 0.6661
vn 0.2877 0.7166 0.6353
vn 0.2988 0.7217 0.6244
vt 0.875000 0.500000
vt 0.875000 0.750000
vt 0.625000 0.750000
vt 0.625000 0.500000
vt 0.683550 0.603341
vt 0.694544 0.610168
vt 0.725738 0.631196
vt 0.752094 0.651101
vt 0.778449 0.631196
vt 0.809643 0.610168
vt 0.820637 0.603341
vt 0.809643 0.596514
vt 0.778449 0.575485
vt 0.752093 0.555581
vt 0.725738 0.575485
vt 0.694544 0.596514
vt 0.375000 0.750000
vt 0.625000 1.000000
vt 0.375000 1.000000
vt 0.375000 0.000000
vt 0.625000 0.000000
vt 0.625000 0.250000
vt 0.375000 0.250000
vt 0.125000 0.500000
vt 0.375000 0.500000
vt 0.277173 0.616228
vt 0.272641 0.613892
vt 0.250874 0.604864
vt 0.248961 0.603970
vt 0.247048 0.604864
vt 0.225280 0.613892
vt 0.220748 0.616228
vt 0.250874 0.627592
vt 0.272641 0.618565
vt 0.125000 0.750000
vt 0.225280 0.618564
vt 0.247048 0.627592
vt 0.248961 0.628487
vt 0.430024 0.115923
vt 0.436841 0.191615
vt 0.483301 0.190648
vt 0.483301 0.114071
vt 0.419992 0.116285
vt 0.427880 0.191799
vt 0.479684 0.301762
vt 0.483301 0.301725
vt 0.439161 0.302106
vt 0.439161 0.302106
vt 0.430465 0.302194
vt 0.426615 0.083158
vt 0.416116 0.083598
vt 0.483301 0.080499
vt 0.457030 0.081763
vt 0.426615 0.083158
vt 0.536579 0.115923
vt 0.529761 0.191615
vt 0.546610 0.116285
vt 0.538722 0.191799
vt 0.486919 0.301762
vt 0.527441 0.302105
vt 0.527441 0.302105
vt 0.536137 0.302194
vt 0.550486 0.083598
vt 0.539987 0.083158
vt 0.539987 0.083158
vt 0.509573 0.081763
vt 0.483301 0.080499
vt 0.698755 0.115923
vt 0.645477 0.114072
vt 0.645477 0.190649
vt 0.691937 0.191616
vt 0.708787 0.116285
vt 0.700898 0.191800
vt 0.689617 0.302106
vt 0.645477 0.301726
vt 0.649095 0.301762
vt 0.698313 0.302194
vt 0.689617 0.302106
vt 0.702164 0.083158
vt 0.712663 0.083598
vt 0.645477 0.080499
vt 0.702164 0.083158
vt 0.671749 0.081763
vt 0.592200 0.115923
vt 0.599018 0.191615
vt 0.582169 0.116285
vt 0.590057 0.191799
vt 0.645477 0.301726
vt 0.601337 0.302106
vt 0.641860 0.301762
vt 0.592641 0.302194
vt 0.588792 0.083158
vt 0.578293 0.083598
vt 0.645477 0.080499
vt 0.619206 0.081763
vt 0.588792 0.083158
s 0
usemtl Material
f 5/1/1 7/2/1 3/3/1 1/4/1 36/5/1 34/6/1 33/7/1 32/8/1 29/9/1 26/10/1 25/11/1
f 36/5/1 1/4/1 5/1/1 25/11/1 27/12/1 28/13/1 31/14/1 30/15/1 35/16/1
f 4/17/2 3/3/2 7/18/2 8/19/2
f 8/20/3 7/21/3 5/22/3 6/23/3
f 6/24/4 2/25/4 42/26/4 40/27/4 38/28/4 39/29/4 37/30/4 48/31/4 43/32/4
f 46/33/4 41/34/4 42/26/4 2/25/4 4/17/4 8/35/4 6/24/4 43/32/4 44/36/4 47/37/4 45/38/4
f 2/25/5 1/4/5 3/3/5 4/17/5
f 6/23/6 5/22/6 1/4/6 2/25/6
s 1
f 9/39/7 12/40/8 11/41/9 10/42/10
f 13/43/11 14/44/12 12/40/8 9/39/7
f 46/45/13 45/46/14 11/41/9 12/40/8 41/47/15
f 41/48/15 12/40/8 14/44/12 42/49/16
f 13/43/11 9/39/7 34/50/17 36/51/18
f 9/39/7 10/42/10 32/52/19 33/53/20 34/54/17
f 15/55/21 10/42/10 11/41/9 16/56/22
f 17/57/23 15/55/21 16/56/22 18/58/24
f 16/56/22 11/41/9 45/46/14 47/59/25 44/60/26
f 18/58/24 16/56/22 44/61/26 43/62/27
f 15/55/21 17/57/23 25/63/28 26/64/29
f 10/42/10 15/55/21 26/65/29 29/66/30 32/67/19
f 19/68/31 22/69/32 21/70/33 20/71/34
f 13/72/11 19/68/31 20/71/34 14/73/12
f 40/74/35 20/71/34 21/70/33 39/75/36 38/76/37
f 42/77/16 14/73/12 20/71/34 40/78/35
f 35/79/38 19/68/31 13/72/11 36/80/18
f 31/81/39 22/69/32 19/68/31 35/82/38 30/83/40
f 23/84/41 24/85/42 21/70/33 22/69/32
f 17/86/23 18/87/24 24/85/42 23/84/41
f 39/88/36 21/70/33 24/85/42 48/89/43 37/90/44
f 48/89/43 24/85/42 18/87/24 43/91/27
f 17/86/23 23/84/41 27/92/45 25/93/28
f 23/84/41 22/69/32 31/94/39 28/95/46 27/96/45
